+-------------------------------------------+
|Hot.Tub.Time.Machine.2010.TS.H264.FEEL-FREE|
+-------------------------------------------+

............................................
Language:English
Genre:Comedy | Sci-Fi
IMDB:http://www.imdb.com/title/tt1231587/
Encoder: Tony2
Video Source:Hot Tub Time Machine [2010] Proper CamRip [RUS Audio][PhAnToM][PDU]Thanks
Audio Source:RX Thanks
.............................................
General
Complete name : Hot.Tub.Time.Machine.2010.TS.H264.FEEL-FREE
Format : MPEG-4
Format profile : Base Media
Codec ID : isom
File size : 1.03 GiB
Duration : 1h 31mn
Overall bit rate : 1 606 Kbps
.............................................
Video
ID : 2
Format : AVC
Format/Info : Advanced Video Codec
Format profile : Baseline@L1.3
Format settings, CABAC : No
Format settings, ReFrames : 1 frame
Codec ID : avc1
Codec ID/Info : Advanced Video Coding
Duration : 1h 31mn
Bit rate mode : Variable
Bit rate : 1 505 Kbps
Width : 704 pixels
Height : 336 pixels
Display aspect ratio : 2.095
Frame rate mode : Constant
Frame rate : 29.970 fps
Resolution : 24 bits
Colorimetry : 4:2:0
Scan type : Progressive
Bits/(Pixel*Frame) : 0.212
Stream size : 989 MiB (94%)
Language : English
..............................................
Audio
ID : 1
Format : AAC
Format/Info : Advanced Audio Codec
Format version : Version 4
Format profile : LC
Format settings, SBR : No
Codec ID : 40
Duration : 1h 31mn
Bit rate mode : Constant
Bit rate : 96.0 Kbps
Channel(s) : 2 channels
Channel positions : L R
Sampling rate : 44.1 KHz
Resolution : 16 bits
Stream size : 63.1 MiB (6%)
Language : English
.............................................
Plot:
Four guy friends, all of them bored with their adult lives, travel back to their respective 80s heydays thanks to a time-bending hot tub.